<?xml version="1.0" encoding="UTF-8"?>
<svg width="106px" height="35px" viewBox="0 0 106 35" version="1.1" xmlns="http://www.w3.org/2000/svg" xmlns:xlink="http://www.w3.org/1999/xlink">
    <!-- Generator: Sketch 51.2 (57519) - http://www.bohemiancoding.com/sketch -->
    <title>Untitled</title>
    <desc>Created with Sketch.</desc>
    <defs></defs>
    <g id="Page-1" stroke="none" stroke-width="1" fill="none" fill-rule="evenodd">
        <g id="experian" fill-rule="nonzero">
            <path d="M16.8194444,7.97222222 L12.9305556,7.97222222 C11.7638889,7.97222222 10.8888889,7 10.8888889,5.93055556 L10.8888889,2.04166667 C10.8888889,0.875 11.8611111,0 12.9305556,0 L16.8194444,0 C17.9861111,0 18.8611111,0.972222222 18.8611111,2.04166667 L18.8611111,5.93055556 C18.8611111,7 17.9861111,7.97222222 16.8194444,7.97222222" id="Shape" fill="#0D6EB6"></path>
            <path d="M6.80555556,16.625 L2.43055556,16.625 C1.16666667,16.625 0.0972222222,15.5555556 0.0972222222,14.2916667 L0.0972222222,9.91666667 C0.0972222222,8.65277778 1.16666667,7.58333333 2.43055556,7.58333333 L6.80555556,7.58333333 C8.06944444,7.58333333 9.13888889,8.65277778 9.13888889,9.91666667 L9.13888889,14.2916667 C9.13888889,15.5555556 8.06944444,16.625 6.80555556,16.625" id="Shape" fill="#72217B"></path>
            <path d="M6.31944444,25.6666667 L3.69444444,25.6666667 C2.91666667,25.6666667 2.23611111,24.9861111 2.23611111,24.2083333 L2.23611111,21.5833333 C2.23611111,20.8055556 2.91666667,20.125 3.69444444,20.125 L6.31944444,20.125 C7.09722222,20.125 7.77777778,20.8055556 7.77777778,21.5833333 L7.77777778,24.2083333 C7.77777778,25.0833333 7.19444444,25.6666667 6.31944444,25.6666667" id="Shape" fill="#B02383"></path>
            <path d="M13.5138889,34.125 L10.4027778,34.125 C9.43055556,34.125 8.75,33.3472222 8.75,32.4722222 L8.75,29.3611111 C8.75,28.3888889 9.52777778,27.7083333 10.4027778,27.7083333 L13.5138889,27.7083333 C14.4861111,27.7083333 15.1666667,28.4861111 15.1666667,29.3611111 L15.1666667,32.4722222 C15.1666667,33.3472222 14.4861111,34.125 13.5138889,34.125" id="Shape" fill="#D72B80"></path>
            <path d="M24.9861111,9.52777778 L22.8472222,9.52777778 C22.1666667,9.52777778 21.6805556,9.04166667 21.6805556,8.36111111 L21.6805556,6.22222222 C21.6805556,5.54166667 22.1666667,5.05555556 22.8472222,5.05555556 L24.9861111,5.05555556 C25.6666667,5.05555556 26.1527778,5.54166667 26.1527778,6.22222222 L26.1527778,8.36111111 C26.1527778,9.04166667 25.6666667,9.52777778 24.9861111,9.52777778" id="Shape" fill="#D72B80"></path>
            <path d="M72.7222222,10.9861111 C73.4027778,10.9861111 73.9861111,10.4027778 73.9861111,9.72222222 C73.9861111,9.04166667 73.4027778,8.45833333 72.7222222,8.45833333 C72.0416667,8.45833333 71.4583333,9.04166667 71.4583333,9.72222222 C71.4583333,10.4027778 72.0416667,10.9861111 72.7222222,10.9861111" id="Shape" fill="#00458F"></path>
            <path d="M26.8333333,24.4027778 C26.6388889,24.6944444 26.3472222,24.7916667 25.9583333,24.7916667 C25.7638889,24.7916667 25.5694444,24.7916667 25.375,24.6944444 C25.0833333,24.5 24.8888889,24.2083333 24.8888889,23.8194444 C24.8888889,23.625 24.9861111,23.5277778 24.9861111,23.3333333 L27.9027778,18.7638889 L24.9861111,14.1944444 C24.8888889,14.0972222 24.8888889,13.9027778 24.8888889,13.7083333 C24.8888889,13.4166667 25.0833333,13.0277778 25.375,12.8333333 C25.5694444,12.7361111 25.6666667,12.7361111 25.8611111,12.7361111 C26.1527778,12.7361111 26.5416667,12.8333333 26.7361111,13.125 L29.0694444,16.9166667 L31.5,13.125 C31.6944444,12.8333333 31.9861111,12.7361111 32.375,12.7361111 C32.5694444,12.7361111 32.7638889,12.7361111 32.8611111,12.8333333 C33.1527778,13.0277778 33.3472222,13.3194444 33.3472222,13.7083333 C33.3472222,13.9027778 33.3472222,14.0972222 33.25,14.1944444 L30.3333333,18.7638889 L33.25,23.3333333 C33.3472222,23.4305556 33.3472222,23.625 33.3472222,23.8194444 C33.3472222,24.2083333 33.1527778,24.5 32.8611111,24.6944444 C32.6666667,24.7916667 32.4722222,24.7916667 32.2777778,24.7916667 C31.9861111,24.7916667 31.5972222,24.6944444 31.4027778,24.4027778 L28.9722222,20.7083333 L26.8333333,24.4027778 Z" id="Shape" fill="#656B7F"></path>
            <path d="M37.2361111,14 C38.3055556,13.0277778 39.7638889,12.4444444 41.4166667,12.4444444 C44.9166667,12.4444444 47.7361111,15.2638889 47.7361111,18.7638889 C47.7361111,22.1666667 44.9166667,24.9861111 41.4166667,24.9861111 C39.8611111,24.9861111 38.3055556,24.4027778 37.2361111,23.4305556 L37.2361111,28.7777778 C37.2361111,29.2638889 36.75,29.75 36.1666667,29.75 C35.6805556,29.75 35.1944444,29.2638889 35.1944444,28.7777778 L35.1944444,13.5138889 C35.1944444,13.0277778 35.6805556,12.5416667 36.1666667,12.5416667 C36.75,12.5416667 37.2361111,13.0277778 37.2361111,13.5138889 L37.2361111,14 Z M41.4166667,14.4861111 C39.0833333,14.4861111 37.2361111,16.3333333 37.2361111,18.6666667 C37.2361111,21 39.0833333,22.8472222 41.4166667,22.8472222 C43.75,22.8472222 45.5972222,21 45.5972222,18.6666667 C45.5972222,16.3333333 43.75,14.4861111 41.4166667,14.4861111 Z" id="Shape" fill="#656B7F"></path>
            <path d="M65.5277778,17.5972222 L65.5277778,23.9166667 C65.5277778,24.4027778 65.0416667,24.8888889 64.5555556,24.8888889 C63.9722222,24.8888889 63.4861111,24.4027778 63.4861111,23.9166667 L63.4861111,13.5138889 C63.4861111,13.0277778 63.9722222,12.5416667 64.5555556,12.5416667 C65.0416667,12.5416667 65.5277778,12.9305556 65.5277778,13.5138889 C66.4027778,12.8333333 67.4722222,12.5416667 68.6388889,12.4444444 C69.3194444,12.4444444 69.8055556,12.9305556 69.8055556,13.4166667 C69.8055556,14 69.3194444,14.4861111 68.6388889,14.4861111 C66.9861111,14.5833333 65.5277778,15.1666667 65.5277778,17.5972222" id="Shape" fill="#656B7F"></path>
            <path d="M72.7222222,12.5416667 C72.1388889,12.5416667 71.6527778,13.0277778 71.6527778,13.5138889 L71.6527778,23.8194444 C71.6527778,24.3055556 72.1388889,24.7916667 72.7222222,24.7916667 C73.2083333,24.7916667 73.6944444,24.3055556 73.6944444,23.8194444 L73.6944444,13.5138889 C73.7916667,13.0277778 73.2083333,12.5416667 72.7222222,12.5416667" id="Shape" fill="#656B7F"></path>
            <path d="M85.9444444,13.5138889 C85.9444444,13.0277778 86.4305556,12.5416667 87.0138889,12.5416667 C87.5,12.5416667 87.9861111,13.0277778 87.9861111,13.5138889 L87.9861111,23.8194444 C87.9861111,24.3055556 87.5,24.7916667 87.0138889,24.7916667 C86.4305556,24.7916667 85.9444444,24.3055556 85.9444444,23.8194444 L85.9444444,23.3333333 C84.875,24.3055556 83.4166667,24.8888889 81.7638889,24.8888889 C78.2638889,24.8888889 75.4444444,22.0694444 75.4444444,18.5694444 C75.4444444,15.1666667 78.2638889,12.3472222 81.7638889,12.3472222 C83.3194444,12.3472222 84.7777778,12.9305556 85.9444444,13.9027778 L85.9444444,13.5138889 Z M81.7638889,22.8472222 C84.0972222,22.8472222 85.9444444,21 85.9444444,18.6666667 C85.9444444,16.3333333 84.0972222,14.4861111 81.7638889,14.4861111 C79.4305556,14.4861111 77.5833333,16.3333333 77.5833333,18.6666667 C77.4861111,21 79.3333333,22.8472222 81.7638889,22.8472222 Z" id="Shape" fill="#656B7F"></path>
            <path d="M98.4861111,17.6944444 C98.4861111,15.9444444 97.0277778,14.4861111 95.2777778,14.4861111 C93.625,14.4861111 92.0694444,15.1666667 92.0694444,17.5972222 L92.0694444,23.9166667 C92.0694444,24.4027778 91.5833333,24.8888889 91.0972222,24.8888889 C90.5138889,24.8888889 90.0277778,24.4027778 90.0277778,23.9166667 L90.0277778,13.5138889 C90.0277778,13.0277778 90.5138889,12.5416667 91.0972222,12.5416667 C91.5833333,12.5416667 92.0694444,12.9305556 92.0694444,13.5138889 C92.9444444,12.8333333 94.0138889,12.4444444 95.2777778,12.4444444 C98.0972222,12.4444444 100.625,14.6805556 100.625,17.4027778 L100.625,23.8194444 C100.625,24.3055556 100.138889,24.7916667 99.6527778,24.7916667 C99.0694444,24.7916667 98.5833333,24.3055556 98.5833333,23.8194444 L98.5833333,17.6944444 L98.4861111,17.6944444 Z" id="Shape" fill="#656B7F"></path>
            <path d="M24.4027778,18.375 C24.4027778,15.1666667 21.4861111,12.4444444 18.1805556,12.4444444 C14.6805556,12.4444444 11.8611111,15.2638889 11.8611111,18.6666667 C11.8611111,22.1666667 14.6805556,24.9861111 18.1805556,24.9861111 C19.8333333,24.9861111 21.3888889,24.3055556 22.5555556,23.2361111 C22.75,23.0416667 22.9444444,22.75 22.9444444,22.4583333 C22.9444444,21.875 22.4583333,21.3888889 21.875,21.3888889 C21.5833333,21.3888889 21.2916667,21.5833333 21.0972222,21.7777778 C20.4166667,22.5555556 19.3472222,22.8472222 18.2777778,22.8472222 C16.2361111,22.8472222 14.4861111,21.3888889 14.0972222,19.4444444 L23.4305556,19.4444444 C23.4305556,19.4444444 23.4305556,19.4444444 23.4305556,19.4444444 C23.4305556,19.4444444 23.4305556,19.4444444 23.5277778,19.4444444 C23.5277778,19.4444444 23.625,19.4444444 23.625,19.4444444 C24.0138889,19.3472222 24.4027778,18.8611111 24.4027778,18.375 M18.1805556,14.4861111 C20.0277778,14.4861111 21.5833333,15.6527778 22.1666667,17.4027778 L14.1944444,17.4027778 C14.6805556,15.75 16.2361111,14.4861111 18.1805556,14.4861111" id="Shape" fill="#656B7F"></path>
            <path d="M61.6388889,18.375 C61.5416667,15.1666667 58.7222222,12.4444444 55.4166667,12.4444444 C51.9166667,12.4444444 49.0972222,15.2638889 49.0972222,18.6666667 C49.0972222,22.1666667 51.9166667,24.9861111 55.4166667,24.9861111 C57.0694444,24.9861111 58.625,24.3055556 59.7916667,23.2361111 C59.9861111,23.0416667 60.1805556,22.75 60.1805556,22.4583333 C60.1805556,21.875 59.6944444,21.3888889 59.1111111,21.3888889 C58.8194444,21.3888889 58.5277778,21.5833333 58.3333333,21.7777778 C57.6527778,22.5555556 56.5833333,22.8472222 55.5138889,22.8472222 C53.4722222,22.8472222 51.7222222,21.3888889 51.3333333,19.4444444 L60.6666667,19.4444444 C60.6666667,19.4444444 60.6666667,19.4444444 60.6666667,19.4444444 C60.6666667,19.4444444 60.7638889,19.4444444 60.7638889,19.4444444 C60.7638889,19.4444444 60.7638889,19.4444444 60.7638889,19.4444444 C61.25,19.3472222 61.6388889,18.8611111 61.6388889,18.375 M55.4166667,14.4861111 C57.2638889,14.4861111 58.8194444,15.6527778 59.4027778,17.4027778 L51.4305556,17.4027778 C52.0138889,15.75 53.5694444,14.4861111 55.4166667,14.4861111" id="Shape" fill="#656B7F"></path>
            <path d="M102.763889,24.8888889 C102.666667,24.8888889 102.569444,24.7916667 102.569444,24.6944444 L102.569444,22.9444444 L102.180556,22.9444444 C102.083333,22.9444444 101.986111,22.8472222 101.986111,22.75 C101.986111,22.6527778 102.083333,22.5555556 102.180556,22.5555556 L103.347222,22.5555556 C103.444444,22.5555556 103.541667,22.6527778 103.541667,22.75 C103.541667,22.8472222 103.444444,22.9444444 103.347222,22.9444444 L102.958333,22.9444444 L102.958333,24.6944444 C102.861111,24.7916667 102.861111,24.8888889 102.763889,24.8888889" id="Shape" fill="#656B7F"></path>
            <path d="M104.708333,24.8888889 C104.611111,24.8888889 104.513889,24.7916667 104.513889,24.7916667 L104.027778,23.3333333 L104.027778,24.6944444 C104.027778,24.7916667 103.930556,24.8888889 103.833333,24.8888889 C103.736111,24.8888889 103.638889,24.7916667 103.638889,24.6944444 L103.638889,22.8472222 C103.638889,22.75 103.736111,22.5555556 103.930556,22.5555556 C104.027778,22.5555556 104.125,22.6527778 104.222222,22.75 L104.708333,24.2083333 L105.194444,22.75 C105.194444,22.6527778 105.291667,22.5555556 105.486111,22.5555556 C105.583333,22.5555556 105.777778,22.6527778 105.777778,22.8472222 L105.777778,24.6944444 C105.777778,24.7916667 105.680556,24.8888889 105.583333,24.8888889 C105.486111,24.8888889 105.388889,24.7916667 105.388889,24.6944444 L105.388889,23.3333333 C105.291667,23.5277778 105.194444,23.9166667 105.097222,24.2083333 C104.902778,24.7916667 104.902778,24.7916667 104.902778,24.7916667 C104.902778,24.7916667 104.805556,24.8888889 104.708333,24.8888889" id="Shape" fill="#656B7F"></path>
        </g>
    </g>
</svg>