<?xml version="1.0" encoding="UTF-8"?>
<svg width="39px" height="30px" viewBox="0 0 39 30" version="1.1" xmlns="http://www.w3.org/2000/svg" xmlns:xlink="http://www.w3.org/1999/xlink">
    <!-- Generator: Sketch 51.2 (57519) - http://www.bohemiancoding.com/sketch -->
    <title>Untitled</title>
    <desc>Created with Sketch.</desc>
    <defs></defs>
    <g id="Page-1" stroke="none" stroke-width="1" fill="none" fill-rule="evenodd">
        <g id="rs-components" fill="#F1072C" fill-rule="nonzero">
            <path d="M35.3804348,30 L14.3478261,29.8369565 C12.0652174,29.8369565 12.5543478,19.8913043 10.2717391,19.8913043 L9.45652174,19.8913043 C8.64130435,19.8913043 8.15217391,19.4021739 8.15217391,18.75 L8.15217391,14.673913 C8.15217391,14.0217391 8.64130435,13.3695652 9.45652174,13.3695652 L10.7608696,13.3695652 C11.4130435,13.3695652 12.0652174,12.8804348 12.0652174,12.2282609 L12.0652174,8.64130435 C12.0652174,7.82608696 11.4130435,7.33695652 10.7608696,7.33695652 L7.33695652,7.33695652 L7.33695652,28.3695652 C7.33695652,29.1847826 6.52173913,30 5.70652174,30 L1.63043478,30 C0.652173913,30 0,29.1847826 0,28.3695652 L0,1.63043478 C0,0.815217391 0.815217391,0 1.63043478,0 L16.1413043,0 C17.7717391,0 18.9130435,1.30434783 18.9130435,2.93478261 L18.9130435,13.3695652 C18.9130435,15 17.6086957,16.3043478 16.1413043,16.3043478 L15.4891304,16.3043478 L15.4891304,17.2826087 C19.5652174,17.2826087 18.423913,22.6630435 20.2173913,22.6630435 L29.8369565,22.6630435 C30.6521739,22.6630435 31.1413043,22.173913 31.1413043,21.5217391 L31.1413043,19.8913043 C31.1413043,19.076087 30.6521739,18.5869565 29.8369565,18.5869565 L24.7826087,18.5869565 C22.5,18.5869565 20.7065217,16.7934783 20.7065217,14.673913 L20.7065217,2.77173913 C20.7065217,1.14130435 22.0108696,0 23.6413043,0 L36.5217391,0 C37.3369565,0 38.1521739,0.815217391 38.1521739,1.63043478 L38.1521739,5.54347826 C38.1521739,6.35869565 37.5,7.17391304 36.5217391,7.17391304 L29.0217391,7.17391304 C28.3695652,7.17391304 27.7173913,7.82608696 27.7173913,8.47826087 L27.7173913,10.1086957 C27.7173913,10.7608696 28.2065217,11.4130435 29.0217391,11.4130435 L34.2391304,11.4130435 C36.5217391,11.4130435 38.1521739,13.2065217 38.1521739,15.326087 L38.1521739,27.0652174 C38.1521739,28.6956522 37.0108696,30 35.3804348,30 Z" id="Shape"></path>
        </g>
    </g>
</svg>